<?xml version="1.0" encoding="UTF-8"?>
<svg xmlns="http://www.w3.org/2000/svg" xmlns:xlink="http://www.w3.org/1999/xlink" width="35pt" height="25pt" viewBox="0 0 35 25" version="1.1">
<g id="surface1">
<path style="fill-rule:evenodd;fill:rgb(100%,100%,100%);fill-opacity:1;stroke-width:6.5;stroke-linecap:butt;stroke-linejoin:miter;stroke:rgb(0%,0%,0%);stroke-opacity:1;stroke-miterlimit:4;" d="M 104.021268 75.520369 C 82.017538 77.91888 55.477494 73.017575 38.010078 73.486849 C 20.49052 74.008264 15.015658 76.511058 12.982138 81.98592 C 11.00076 87.512923 12.512864 103.98965 15.015658 112.488721 C 17.518452 120.987792 25.600391 142.730815 33.00449 156.496181 C 37.123671 164.213129 46.509149 182.984084 54.017531 191.013881 C 61.525912 198.991537 78.524055 216.511095 84.989606 221.516683 C 91.507298 226.522271 106.002647 237.524136 111.477508 246.492481 C 117.004512 255.512967 137.496137 274.492488 145.995208 277.516697 C 154.494279 280.488765 167.008249 283.982248 184.475665 278.507387 C 201.995223 272.980383 211.484983 259.99714 213.518503 254.522278 C 215.499882 248.995275 221.496159 229.025064 221.496159 215.989679 C 221.496159 203.006436 228.013852 173.02505 229.99523 167.498046 C 231.976609 162.023185 236.982197 136.525971 235.991508 125.002691 C 235.000818 113.47941 232.498024 85.479403 229.004541 73.017575 C 225.511058 60.503605 217.481261 34.015702 212.997088 29.010114 C 208.512916 24.004527 204.498017 14.514766 197.511051 17.01756 C 190.524084 19.520354 167.477523 36.98777 161.481246 42.984047 C 155.484969 48.980325 143.231707 58.470085 135.514759 63.006399 C 118.516616 73.017575 114.293152 74.373255 104.021268 75.520369 Z M 104.021268 75.520369 " transform="matrix(0.0749163,0,0,0.0749163,-0.656167,-1.001455)"/>
<path style=" stroke:none;fill-rule:evenodd;fill:rgb(0%,0%,0%);fill-opacity:1;" d="M 11.253906 10.3125 L 14.289062 6.226562 L 15.375 7.726562 Z M 11.253906 10.3125 "/>
<path style=" stroke:none;fill-rule:evenodd;fill:rgb(0%,0%,0%);fill-opacity:1;" d="M 8.878906 11.0625 L 4.019531 9.554688 L 4.027344 11.40625 Z M 8.878906 11.0625 "/>
<path style=" stroke:none;fill-rule:evenodd;fill:rgb(0%,0%,0%);fill-opacity:1;" d="M 11.535156 15.292969 C 10.363281 15.605469 9.195312 15.179688 8.800781 15.40625 C 8.503906 15.578125 8.527344 16.761719 9.851562 17.746094 C 10.773438 18.433594 12.011719 18.28125 12.546875 18.140625 C 13.125 17.984375 14.160156 17.3125 14.496094 16.0625 C 14.710938 15.257812 14.429688 13.890625 14.066406 13.792969 C 13.457031 13.632812 12.648438 14.996094 11.535156 15.292969 Z M 11.535156 15.292969 "/>
<path style=" stroke:none;fill-rule:evenodd;fill:rgb(0%,0%,0%);fill-opacity:1;" d="M 26.027344 8.632812 C 24.457031 8.101562 22.8125 6.925781 21.609375 6.40625 C 20.402344 5.886719 19.953125 5.882812 19.640625 6.195312 C 19.332031 6.503906 18.910156 7.671875 18.8125 8.328125 C 18.714844 8.984375 18.578125 10.71875 18.644531 11.886719 C 18.679688 12.539062 18.722656 14.113281 18.976562 14.894531 C 19.234375 15.675781 19.835938 17.398438 20.117188 17.945312 C 20.402344 18.492188 21.039062 19.695312 21.128906 20.480469 C 21.214844 21.265625 22.007812 23.207031 22.488281 23.679688 C 22.972656 24.152344 23.710938 24.785156 25.074219 24.964844 C 26.433594 25.144531 27.492188 24.5625 27.800781 24.25 C 28.109375 23.941406 29.152344 22.773438 29.5625 21.890625 C 29.972656 21.007812 31.363281 19.175781 31.671875 18.867188 C 31.984375 18.554688 33.128906 16.980469 33.425781 16.167969 C 33.722656 15.355469 34.4375 13.375 34.59375 12.417969 C 34.753906 11.457031 35.046875 9.402344 34.902344 8.921875 C 34.753906 8.441406 34.78125 7.667969 34.226562 7.617188 C 33.671875 7.566406 31.558594 8.027344 30.960938 8.242188 C 30.363281 8.460938 29.230469 8.714844 28.5625 8.78125 C 27.089844 8.921875 26.761719 8.878906 26.027344 8.632812 Z M 26.027344 8.632812 "/>
<path style=" stroke:none;fill-rule:evenodd;fill:rgb(100%,100%,100%);fill-opacity:1;" d="M 25.265625 12.304688 L 20.777344 14.699219 L 20.4375 12.878906 Z M 25.265625 12.304688 "/>
<path style=" stroke:none;fill-rule:evenodd;fill:rgb(100%,100%,100%);fill-opacity:1;" d="M 27.71875 12.585938 L 31.503906 15.984375 L 32.273438 14.300781 Z M 27.71875 12.585938 "/>
<path style=" stroke:none;fill-rule:evenodd;fill:rgb(100%,100%,100%);fill-opacity:1;" d="M 25.363281 21.289062 C 24.152344 21.199219 23.085938 21.839844 22.65625 21.691406 C 22.332031 21.578125 22.132812 20.40625 23.25 19.195312 C 24.027344 18.347656 25.273438 18.261719 25.824219 18.300781 C 26.421875 18.347656 27.5625 18.8125 28.125 19.980469 C 28.488281 20.730469 28.46875 22.121094 28.128906 22.285156 C 27.5625 22.558594 26.511719 21.371094 25.363281 21.289062 Z M 25.363281 21.289062 "/>
</g>
</svg>
