<?xml version="1.0" encoding="UTF-8" standalone="no"?>
<!-- Created with Inkscape (http://www.inkscape.org/) -->

<svg
   xmlns:dc="http://purl.org/dc/elements/1.1/"
   xmlns:cc="http://creativecommons.org/ns#"
   xmlns:rdf="http://www.w3.org/1999/02/22-rdf-syntax-ns#"
   xmlns:svg="http://www.w3.org/2000/svg"
   xmlns="http://www.w3.org/2000/svg"
   xmlns:xlink="http://www.w3.org/1999/xlink"
   version="1.0"
   width="279.52448"
   height="199.98245"
   id="svg2">
  <metadata
     id="metadata7">
    <rdf:RDF>
      <cc:Work
         rdf:about="">
        <dc:format>image/svg+xml</dc:format>
        <dc:type
           rdf:resource="http://purl.org/dc/dcmitype/StillImage" />
        <dc:title></dc:title>
      </cc:Work>
    </rdf:RDF>
  </metadata>
  <defs
     id="defs5" />
  <g
     transform="matrix(0.5993302,0,0,0.5993302,-5.2493374,-8.0116377)"
     id="g2196">
    <g
       id="g2184">
      <path
         d="M 104,75.5 C 82.008903,77.926416 55.5,73 38,73.5 20.5,74 15,76.5 13,82 c -2,5.5 -0.5,22 2,30.5 2.5,8.5 10.59823,30.22453 18,44 4.133061,7.69206 13.5,26.5 21,34.5 7.5,8 24.5,25.5 31,30.5 6.5,5 21,16 26.5,25 5.5,9 26,28 34.5,31 8.5,3 21,6.5 38.5,1 17.5,-5.5 27,-18.5 29,-24 2,-5.5 8,-25.5 8,-38.5 0,-13 6.5,-43 8.5,-48.5 2,-5.5 7,-31 6,-42.5 -1,-11.5 -3.5,-39.5 -7,-52 -3.5,-12.5 -11.5,-39 -16,-44 -4.5,-5 -8.5,-14.5 -15.5,-12 -7,2.5 -30,20 -36,26 -6,6 -18.29063,15.465074 -26,20 -17,10 -21.19402,11.362876 -31.5,12.5 z"
         id="path2202"
         style="fill:#ffffff;fill-opacity:1;fill-rule:evenodd;stroke:#000000;stroke-width:6.5;stroke-linecap:butt;stroke-linejoin:miter;stroke-miterlimit:4;stroke-opacity:1;stroke-dasharray:none" />
      <path
         d="m 159,151 40.5,-54.5 14.5,20 -55,34.5 z"
         id="path2204"
         style="fill:#000000;fill-opacity:1;fill-rule:evenodd;stroke:none" />
      <use
         transform="matrix(-0.807641,0.589674,0.589674,0.807641,166.6529,-54.66984)"
         id="use2206"
         style="fill:#000000;fill-opacity:1"
         x="0"
         y="0"
         width="480"
         height="360"
         xlink:href="#path2204" />
      <path
         d="m 162.75,217.5 c -15.67047,4.19889 -31.26789,-1.52076 -36.5,1.5 -3.98042,2.2981 -3.66327,18.12161 14,31.25 12.31981,9.15682 28.86914,7.16071 36,5.25 7.71608,-2.06752 21.5195,-11.02854 26,-27.75 2.87861,-10.74311 -0.87199,-28.94294 -5.75,-30.25 -8.09953,-2.17026 -18.92971,16.02892 -33.75,20 z"
         id="path2208"
         style="fill:#000000;fill-opacity:1;fill-rule:evenodd;stroke:none" />
    </g>
    <g
       id="g2190">
      <path
         d="M 356.1774,128.58594 C 335.21838,121.49968 313.26881,105.84056 297.19431,98.9044 281.1198,91.96824 275.07854,91.912055 270.9432,96.053185 c -4.13534,4.141135 -9.74277,19.731395 -11.06572,28.492105 -1.32294,8.7607 -3.15527,31.87301 -2.26243,47.48559 0.49854,8.71787 1.0478,29.72208 4.46838,40.1408 3.42058,10.41872 11.44132,33.46036 15.22217,40.73739 3.78086,7.27703 12.28003,23.37094 13.4654,33.85164 1.18537,10.48069 11.74541,36.35993 18.18373,42.66851 6.43831,6.30857 16.29141,14.75939 34.47718,17.16316 18.18576,2.40376 32.28658,-5.36908 36.42192,-9.5102 4.13533,-4.14113 18.01924,-19.73719 23.5085,-31.52143 5.48927,-11.78422 24.04893,-36.23394 28.18426,-40.37508 4.13535,-4.14114 19.43515,-25.14508 23.38455,-35.99183 3.94943,-10.84676 13.50626,-37.28379 15.61173,-50.09266 2.10548,-12.80887 6.04329,-40.20857 4.07541,-46.6411 -1.9679,-6.43252 -1.58242,-16.73307 -8.98342,-17.42263 -7.40097,-0.68957 -35.63938,5.46203 -43.61176,8.36739 -7.97238,2.90538 -23.11021,6.29553 -32.01348,7.15105 -19.63264,1.88651 -24.00991,1.35099 -33.83222,-1.96995 z"
         id="path2210"
         style="fill:#000000;fill-opacity:1;fill-rule:evenodd;stroke:none" />
      <path
         d="m 346.01075,177.62456 -59.91375,31.95062 -4.55641,-24.2794 64.47016,-7.67122 z"
         id="path2212"
         style="fill:#ffffff;fill-opacity:1;fill-rule:evenodd;stroke:none" />
      <use
         transform="matrix(-0.970847,-0.23969,-0.23969,0.970849,757.278,91.8524)"
         id="use2214"
         x="0"
         y="0"
         width="480"
         height="360"
         xlink:href="#path2212" />
      <path
         d="m 347.31848,297.52271 c -16.17973,-1.18752 -30.42875,7.35406 -36.1343,5.36744 -4.34059,-1.51136 -6.99472,-17.11392 7.89499,-33.32013 10.38533,-11.30354 27.01549,-12.44451 34.37809,-11.90411 7.96683,0.5847 23.2051,6.7999 30.74016,22.38531 4.84108,10.01323 4.56799,28.59349 0.0214,30.79163 -7.54926,3.64981 -21.5984,-12.19707 -36.90033,-13.32014 z"
         id="path2216"
         style="fill:#ffffff;fill-opacity:1;fill-rule:evenodd;stroke:none" />
    </g>
  </g>
</svg>
