<?xml version="1.0" encoding="UTF-8" standalone="no"?>
<!-- Created with Inkscape (http://www.inkscape.org/) -->

<svg
   xmlns:dc="http://purl.org/dc/elements/1.1/"
   xmlns:cc="http://creativecommons.org/ns#"
   xmlns:rdf="http://www.w3.org/1999/02/22-rdf-syntax-ns#"
   xmlns:svg="http://www.w3.org/2000/svg"
   xmlns="http://www.w3.org/2000/svg"
   version="1.0"
   width="280"
   height="200"
   viewBox="0 0 224 160"
   id="svg2">
  <defs
     id="defs16" />
  <metadata
     id="metadata4">
Created by potrace 1.10, written by Peter Selinger 2001-2011
<rdf:RDF>
  <cc:Work
     rdf:about="">
    <dc:format>image/svg+xml</dc:format>
    <dc:type
       rdf:resource="http://purl.org/dc/dcmitype/StillImage" />
    <dc:title></dc:title>
  </cc:Work>
</rdf:RDF>
</metadata>
  <g
     transform="matrix(0.11262889,0,0,-0.11262889,-0.60098295,156.08728)"
     id="g6"
     style="fill:#000000;stroke:none">
    <path
       d="m 385,1358 c -11,-6 -39,-31 -63,-55 -39,-40 -42,-47 -36,-79 7,-40 -10,-90 -37,-105 -11,-5 -19,-19 -19,-31 0,-21 0,-21 14,-2 24,32 8,-90 -21,-160 -19,-46 -25,-78 -26,-148 -1,-81 -3,-91 -21,-98 -19,-8 -19,-9 5,-9 15,-1 29,-8 32,-16 4,-8 4,-63 1,-122 -3,-59 -6,-159 -8,-222 -3,-124 -7,-131 -63,-131 -82,0 -174,-49 -123,-65 11,-3 35,-2 55,4 28,7 37,6 43,-6 8,-13 15,-13 65,2 56,16 57,17 71,68 8,29 29,101 45,161 19,65 31,132 31,167 0,33 2,59 5,59 19,0 66,-34 89,-65 27,-35 46,-54 103,-107 16,-14 35,-46 42,-70 C 608,200 660,146 822,64 927,11 940,7 999,8 c 66,2 135,17 235,52 49,16 74,19 135,14 66,-6 86,-3 154,21 l 78,27 177,-10 c 146,-8 181,-7 199,4 19,12 21,18 12,43 -6,17 -23,42 -37,57 -25,25 -31,26 -91,20 -60,-6 -63,-6 -50,10 13,16 12,17 -6,9 -11,-5 -42,-10 -70,-12 -27,-3 -66,-11 -85,-20 -33,-15 -36,-15 -88,12 -47,25 -58,27 -85,18 -18,-6 -49,-14 -69,-17 -31,-6 -37,-4 -32,9 8,19 -5,19 -29,0 -31,-23 -71,0 -149,87 -111,123 -214,220 -271,255 -41,26 -62,33 -103,33 -64,0 -77,11 -99,88 -34,115 -37,174 -14,275 26,114 38,339 19,362 -22,26 -63,18 -100,-20 l -33,-34 -39,34 c -31,29 -46,35 -82,35 -24,0 -50,2 -58,5 -7,2 -22,-1 -33,-7 z m 111,-33 c 11,-3 38,-18 58,-35 42,-32 50,-31 99,15 17,16 34,24 44,21 14,-6 15,-23 10,-129 -3,-69 -14,-162 -26,-215 -23,-99 -20,-161 14,-275 29,-99 63,-127 156,-127 53,0 129,-60 279,-219 69,-73 136,-139 150,-146 31,-16 165,-14 197,4 19,10 31,8 72,-14 57,-28 75,-30 111,-12 18,9 63,13 143,12 105,-1 120,-3 139,-22 24,-25 18,-57 -9,-50 -10,3 -93,8 -185,12 -159,6 -168,6 -215,-16 -41,-19 -63,-22 -148,-21 -85,1 -114,-4 -192,-28 C 1143,64 1077,46 1048,41 1019,36 988,30 980,28 972,27 906,55 835,92 679,171 645,203 605,313 c -22,60 -38,86 -75,121 -26,24 -65,65 -86,92 -80,98 -144,91 -144,-15 0,-49 -43,-237 -57,-251 -3,-3 -4,76 -3,175 1,99 -1,236 -5,305 -7,121 -7,127 19,187 17,42 26,81 26,117 0,37 7,69 21,96 14,27 20,51 16,73 -4,28 1,38 40,79 48,49 53,50 139,33 z M 215,160 c -3,-5 -12,-10 -18,-10 -7,0 -6,4 3,10 19,12 23,12 15,0 z m -58,-16 c -3,-3 -12,-4 -19,-1 -8,3 -5,6 6,6 11,1 17,-2 13,-5 z"
       id="path8" />
    <path
       d="m 580,1168 c -24,-26 -27,-80 -5,-98 20,-17 38,-1 55,50 10,32 11,42 0,55 -17,20 -25,19 -50,-7 z m 35,-15 c -3,-10 -9,-30 -12,-45 -5,-25 -23,-41 -23,-20 0,23 23,82 32,82 6,0 7,-8 3,-17 z"
       id="path10" />
    <path
       d="m 197,603 c -4,-3 -7,-11 -7,-17 0,-6 5,-5 12,2 6,6 9,14 7,17 -3,3 -9,2 -12,-2 z"
       id="path12" />
  </g>
  <path
     d="M 133.25021,189.22036 C 126.93065,186.78214 107.222,176.6996 101.99979,173.23331 95.513803,168.92815 90.515633,163.24788 87.65686,156.933 c -1.32969,-2.93723 -3.615896,-7.9794 -5.080456,-11.20483 -1.869323,-4.11684 -4.667864,-7.99275 -9.391225,-13.0066 -3.700614,-3.92821 -9.114177,-9.71442 -12.03014,-12.85825 -6.564807,-7.0778 -9.827701,-8.91426 -15.200748,-8.55542 -2.424989,0.16194 -4.046427,4.59665 -5.373434,14.69658 -1.458574,11.10131 -5.524464,28.80307 -6.480078,28.21247 -0.363106,-0.22441 -0.870368,-18.60114 -1.12725,-40.83718 l -0.467058,-40.429153 2.967607,-8.641975 c 1.895618,-5.520234 3.23695,-11.462081 3.713235,-16.448926 0.470978,-4.931286 1.571979,-9.840615 2.989034,-13.328007 1.473931,-3.627365 2.243406,-7.15134 2.243406,-10.274148 0,-4.730865 0.02818,-4.781275 6.027403,-10.780494 l 6.027403,-6.0274026 5.614902,0.5243277 c 5.922438,0.5530458 8.479673,1.595828 15.747809,6.4215989 5.148686,3.418535 6.521913,3.293982 11.952853,-1.084141 9.096101,-7.3327727 9.733343,-6.2453027 8.337406,14.22799 -0.550495,8.073739 -2.006435,20.427482 -3.235423,27.452759 -1.77294,10.13468 -2.138547,14.469139 -1.769905,20.98311 0.809348,14.301325 6.344041,30.689051 11.637829,34.458561 2.85766,2.03483 8.52631,3.5144 13.58194,3.545 7.58909,0.046 14.19595,5.18988 40.15225,31.26157 l 20.34753,20.43797 5.06821,0.63322 c 6.20085,0.77475 17.70484,0.086 23.04201,-1.37962 3.7691,-1.03499 4.24393,-0.95062 10.26232,1.82343 7.12136,3.28245 10.30827,3.539 17.72654,1.42701 5.29006,-1.50608 24.8078,-2.06644 31.78804,-0.91264 6.41231,1.05992 10.50578,8.64864 4.54273,8.4216 -1.42592,-0.0543 -11.70991,-0.58047 -22.85332,-1.16928 -22.54154,-1.19108 -25.90216,-0.96941 -34.36299,2.26663 -5.17303,1.97853 -7.71734,2.32425 -21.42566,2.91123 -14.29965,0.6123 -16.41185,0.91911 -26.16147,3.80018 -8.93319,2.63979 -20.09197,5.46515 -27.41878,6.94232 -0.95061,0.19165 -3.56024,-0.35831 -5.79917,-1.22213 l 0,0 z M 83.706872,45.18971 c 1.860583,-0.713972 4.601084,-6.204449 5.310139,-10.638636 0.866263,-5.417309 -2.918832,-8.773573 -6.612225,-5.863096 -4.303361,3.391143 -5.906452,12.083891 -2.851093,15.460024 1.561861,1.725837 2.05079,1.848471 4.153179,1.041708 z"
     transform="scale(0.8,0.8)"
     id="path2986"
     style="fill:#a0a0a0;stroke:none" />
</svg>
