<?xml version="1.0" encoding="UTF-8" standalone="no"?>
<!DOCTYPE svg PUBLIC "-//W3C//DTD SVG 20010904//EN" "http://www.w3.org/TR/2001/REC-SVG-20010904/DTD/svg10.dtd">
<svg version="1.0" xmlns="http://www.w3.org/2000/svg" width="200.000000pt" height="137.000000pt" viewBox="0 0 200.000000 137.000000" preserveAspectRatio="xMidYMid meet">
<metadata>
Created by potrace 1.10, written by Peter Selinger 2001-2011
</metadata>
<g transform="translate(0.000000,137.000000) scale(0.100000,-0.100000)" fill="#000000" stroke="none">
<path d="M385 1358 c-11 -6 -39 -31 -63 -55 -39 -40 -42 -47 -36 -79 7 -40 -10 -90 -37 -105 -11 -5 -19 -19 -19 -31 0 -21 0 -21 14 -2 24 32 8 -90 -21 -160 -19 -46 -25 -78 -26 -148 -1 -81 -3 -91 -21 -98 -19 -8 -19 -9 5 -9 15 -1 29 -8 32 -16 4 -8 4 -63 1 -122 -3 -59 -6 -159 -8 -222 -3 -124 -7 -131 -63 -131 -82 0 -174 -49 -123 -65 11 -3 35 -2 55 4 28 7 37 6 43 -6 8 -13 15 -13 65 2 56 16 57 17 71 68 8 29 29 101 45 161 19 65 31 132 31 167 0 33 2 59 5 59 19 0 66 -34 89 -65 27 -35 46 -54 103 -107 16 -14 35 -46 42 -70 39 -128 91 -182 253 -264 105 -53 118 -57 177 -56 66 2 135 17 235 52 49 16 74 19 135 14 66 -6 86 -3 154 21 l78 27 177 -10 c146 -8 181 -7 199 4 19 12 21 18 12 43 -6 17 -23 42 -37 57 -25 25 -31 26 -91 20 -60 -6 -63 -6 -50 10 13 16 12 17 -6 9 -11 -5 -42 -10 -70 -12 -27 -3 -66 -11 -85 -20 -33 -15 -36 -15 -88 12 -47 25 -58 27 -85 18 -18 -6 -49 -14 -69 -17 -31 -6 -37 -4 -32 9 8 19 -5 19 -29 0 -31 -23 -71 0 -149 87 -111 123 -214 220 -271 255 -41 26 -62 33 -103 33 -64 0 -77 11 -99 88 -34 115 -37 174 -14 275 26 114 38 339 19 362 -22 26 -63 18 -100 -20 l-33 -34 -39 34 c-31 29 -46 35 -82 35 -24 0 -50 2 -58 5 -7 2 -22 -1 -33 -7z m111 -33 c11 -3 38 -18 58 -35 42 -32 50 -31 99 15 17 16 34 24 44 21 14 -6 15 -23 10 -129 -3 -69 -14 -162 -26 -215 -23 -99 -20 -161 14 -275 29 -99 63 -127 156 -127 53 0 129 -60 279 -219 69 -73 136 -139 150 -146 31 -16 165 -14 197 4 19 10 31 8 72 -14 57 -28 75 -30 111 -12 18 9 63 13 143 12 105 -1 120 -3 139 -22 24 -25 18 -57 -9 -50 -10 3 -93 8 -185 12 -159 6 -168 6 -215 -16 -41 -19 -63 -22 -148 -21 -85 1 -114 -4 -192 -28 -50 -16 -116 -34 -145 -39 -29 -5 -60 -11 -68 -13 -8 -1 -74 27 -145 64 -156 79 -190 111 -230 221 -22 60 -38 86 -75 121 -26 24 -65 65 -86 92 -80 98 -144 91 -144 -15 0 -49 -43 -237 -57 -251 -3 -3 -4 76 -3 175 1 99 -1 236 -5 305 -7 121 -7 127 19 187 17 42 26 81 26 117 0 37 7 69 21 96 14 27 20 51 16 73 -4 28 1 38 40 79 48 49 53 50 139 33z m-281 -1165 c-3 -5 -12 -10 -18 -10 -7 0 -6 4 3 10 19 12 23 12 15 0z m-58 -16 c-3 -3 -12 -4 -19 -1 -8 3 -5 6 6 6 11 1 17 -2 13 -5z"/>
<path d="M580 1168 c-24 -26 -27 -80 -5 -98 20 -17 38 -1 55 50 10 32 11 42 0 55 -17 20 -25 19 -50 -7z m35 -15 c-3 -10 -9 -30 -12 -45 -5 -25 -23 -41 -23 -20 0 23 23 82 32 82 6 0 7 -8 3 -17z"/>
<path d="M197 603 c-4 -3 -7 -11 -7 -17 0 -6 5 -5 12 2 6 6 9 14 7 17 -3 3 -9 2 -12 -2z"/>
</g>
</svg>