<?xml version="1.0" encoding="UTF-8"?>
<svg xmlns="http://www.w3.org/2000/svg" xmlns:xlink="http://www.w3.org/1999/xlink" width="35pt" height="25pt" viewBox="0 0 35 25" version="1.1">
<g id="surface1">
<path style=" stroke:none;fill-rule:nonzero;fill:rgb(0%,0%,0%);fill-opacity:1;" d="M 6.679688 0.488281 C 6.488281 0.597656 5.996094 1.035156 5.574219 1.457031 C 4.886719 2.160156 4.832031 2.285156 4.9375 2.847656 C 5.0625 3.550781 4.761719 4.433594 4.289062 4.695312 C 4.09375 4.785156 3.953125 5.03125 3.953125 5.242188 C 3.953125 5.609375 3.953125 5.609375 4.199219 5.277344 C 4.621094 4.714844 4.339844 6.859375 3.832031 8.09375 C 3.496094 8.902344 3.390625 9.464844 3.371094 10.695312 C 3.355469 12.121094 3.320312 12.296875 3.003906 12.421875 C 2.667969 12.5625 2.667969 12.582031 3.089844 12.582031 C 3.355469 12.597656 3.601562 12.722656 3.65625 12.863281 C 3.726562 13.003906 3.726562 13.96875 3.671875 15.007812 C 3.621094 16.046875 3.566406 17.808594 3.53125 18.914062 C 3.480469 21.097656 3.40625 21.222656 2.421875 21.222656 C 0.980469 21.222656 -0.640625 22.082031 0.257812 22.363281 C 0.453125 22.417969 0.875 22.398438 1.226562 22.292969 C 1.71875 22.171875 1.878906 22.1875 1.984375 22.398438 C 2.125 22.628906 2.246094 22.628906 3.125 22.363281 C 4.113281 22.082031 4.128906 22.066406 4.375 21.167969 C 4.515625 20.65625 4.886719 19.390625 5.167969 18.335938 C 5.503906 17.191406 5.714844 16.011719 5.714844 15.394531 C 5.714844 14.816406 5.75 14.359375 5.800781 14.359375 C 6.136719 14.359375 6.964844 14.957031 7.367188 15.5 C 7.84375 16.117188 8.175781 16.453125 9.179688 17.382812 C 9.460938 17.632812 9.796875 18.195312 9.917969 18.617188 C 10.605469 20.867188 11.519531 21.820312 14.371094 23.261719 C 16.21875 24.195312 16.449219 24.265625 17.488281 24.246094 C 18.648438 24.210938 19.863281 23.949219 21.621094 23.332031 C 22.484375 23.050781 22.925781 23 24 23.085938 C 25.160156 23.191406 25.511719 23.140625 26.707031 22.71875 L 28.082031 22.242188 L 31.195312 22.417969 C 33.765625 22.558594 34.382812 22.539062 34.699219 22.347656 C 35.03125 22.136719 35.066406 22.03125 34.910156 21.589844 C 34.804688 21.292969 34.503906 20.851562 34.257812 20.585938 C 33.816406 20.148438 33.710938 20.128906 32.65625 20.234375 C 31.601562 20.339844 31.546875 20.339844 31.777344 20.058594 C 32.003906 19.777344 31.988281 19.761719 31.671875 19.902344 C 31.476562 19.988281 30.933594 20.078125 30.4375 20.113281 C 29.964844 20.164062 29.277344 20.304688 28.941406 20.464844 C 28.363281 20.726562 28.308594 20.726562 27.394531 20.253906 C 26.566406 19.8125 26.375 19.777344 25.898438 19.9375 C 25.582031 20.042969 25.035156 20.183594 24.683594 20.234375 C 24.140625 20.339844 24.035156 20.304688 24.121094 20.078125 C 24.261719 19.742188 24.035156 19.742188 23.609375 20.078125 C 23.066406 20.480469 22.363281 20.078125 20.988281 18.546875 C 19.035156 16.382812 17.222656 14.675781 16.21875 14.058594 C 15.5 13.601562 15.128906 13.476562 14.40625 13.476562 C 13.28125 13.476562 13.050781 13.285156 12.664062 11.929688 C 12.066406 9.90625 12.015625 8.867188 12.417969 7.089844 C 12.875 5.082031 13.085938 1.125 12.753906 0.71875 C 12.367188 0.261719 11.644531 0.402344 10.992188 1.070312 L 10.414062 1.667969 L 9.726562 1.070312 C 9.179688 0.5625 8.917969 0.453125 8.28125 0.453125 C 7.859375 0.453125 7.402344 0.417969 7.261719 0.367188 C 7.140625 0.332031 6.875 0.382812 6.679688 0.488281 Z M 8.636719 1.070312 C 8.828125 1.125 9.304688 1.386719 9.65625 1.6875 C 10.394531 2.25 10.535156 2.234375 11.398438 1.421875 C 11.695312 1.140625 11.996094 1 12.171875 1.054688 C 12.417969 1.160156 12.4375 1.457031 12.347656 3.324219 C 12.296875 4.539062 12.101562 6.175781 11.890625 7.105469 C 11.484375 8.847656 11.539062 9.941406 12.136719 11.945312 C 12.648438 13.6875 13.246094 14.183594 14.882812 14.183594 C 15.816406 14.183594 17.152344 15.238281 19.792969 18.035156 C 21.007812 19.320312 22.183594 20.480469 22.433594 20.605469 C 22.976562 20.886719 25.335938 20.851562 25.898438 20.535156 C 26.234375 20.359375 26.445312 20.394531 27.164062 20.78125 C 28.167969 21.273438 28.484375 21.308594 29.121094 20.992188 C 29.4375 20.832031 30.226562 20.761719 31.636719 20.78125 C 33.484375 20.796875 33.746094 20.832031 34.082031 21.167969 C 34.503906 21.609375 34.398438 22.171875 33.921875 22.046875 C 33.746094 21.996094 32.285156 21.90625 30.667969 21.835938 C 27.871094 21.730469 27.710938 21.730469 26.882812 22.117188 C 26.164062 22.453125 25.777344 22.503906 24.28125 22.488281 C 22.785156 22.46875 22.273438 22.558594 20.902344 22.980469 C 20.019531 23.261719 18.859375 23.578125 18.347656 23.667969 C 17.839844 23.753906 17.292969 23.859375 17.152344 23.894531 C 17.011719 23.914062 15.851562 23.421875 14.601562 22.769531 C 11.855469 21.378906 11.257812 20.816406 10.554688 18.878906 C 10.164062 17.824219 9.882812 17.367188 9.234375 16.75 C 8.777344 16.328125 8.089844 15.605469 7.71875 15.132812 C 6.3125 13.40625 5.1875 13.53125 5.1875 15.394531 C 5.1875 16.257812 4.429688 19.566406 4.183594 19.8125 C 4.128906 19.867188 4.113281 18.476562 4.128906 16.734375 C 4.148438 14.992188 4.113281 12.582031 4.042969 11.367188 C 3.917969 9.238281 3.917969 9.132812 4.375 8.074219 C 4.675781 7.335938 4.832031 6.648438 4.832031 6.015625 C 4.832031 5.363281 4.957031 4.800781 5.203125 4.328125 C 5.449219 3.851562 5.554688 3.429688 5.484375 3.042969 C 5.414062 2.550781 5.503906 2.375 6.1875 1.652344 C 7.035156 0.789062 7.121094 0.773438 8.636719 1.070312 Z M 3.691406 21.574219 C 3.636719 21.660156 3.480469 21.75 3.371094 21.75 C 3.25 21.75 3.265625 21.679688 3.425781 21.574219 C 3.761719 21.363281 3.832031 21.363281 3.691406 21.574219 Z M 2.667969 21.855469 C 2.617188 21.90625 2.457031 21.925781 2.335938 21.871094 C 2.195312 21.820312 2.246094 21.765625 2.441406 21.765625 C 2.632812 21.75 2.738281 21.800781 2.667969 21.855469 Z M 2.667969 21.855469 "/>
<path style=" stroke:none;fill-rule:nonzero;fill:rgb(0%,0%,0%);fill-opacity:1;" d="M 10.113281 3.832031 C 9.691406 4.292969 9.636719 5.242188 10.023438 5.558594 C 10.378906 5.859375 10.695312 5.574219 10.992188 4.679688 C 11.167969 4.117188 11.1875 3.941406 10.992188 3.710938 C 10.695312 3.359375 10.554688 3.375 10.113281 3.832031 Z M 10.730469 4.097656 C 10.675781 4.273438 10.570312 4.625 10.519531 4.890625 C 10.429688 5.328125 10.113281 5.609375 10.113281 5.242188 C 10.113281 4.835938 10.519531 3.796875 10.675781 3.796875 C 10.78125 3.796875 10.800781 3.941406 10.730469 4.097656 Z M 10.730469 4.097656 "/>
<path style=" stroke:none;fill-rule:nonzero;fill:rgb(0%,0%,0%);fill-opacity:1;" d="M 3.371094 13.777344 C 3.300781 13.828125 3.25 13.96875 3.25 14.074219 C 3.25 14.183594 3.335938 14.164062 3.460938 14.039062 C 3.566406 13.933594 3.621094 13.792969 3.585938 13.742188 C 3.53125 13.6875 3.425781 13.707031 3.371094 13.777344 Z M 3.371094 13.777344 "/>
</g>
</svg>
